<?xml version="1.0" encoding="utf-8"?>
<!-- Generator: Adobe Illustrator 23.0.3, SVG Export Plug-In . SVG Version: 6.00 Build 0)  -->
<svg version="1.1" id="Layer_1" xmlns="http://www.w3.org/2000/svg" xmlns:xlink="http://www.w3.org/1999/xlink" x="0px" y="0px"
	 width="166px" height="134px" viewBox="0 0 166 134" style="enable-background:new 0 0 166 134;" xml:space="preserve">
<style type="text/css">
	.st0{fill:#FFFFFF;}
	.st1{fill:#282826;}
</style>
<g>
	<circle class="st0" cx="82.98" cy="50.35" r="18.65"/>
	<path class="st1" d="M83,12.39c-16.95,0-31.92,11.32-36.54,27.58c3.26,11.44,11.63,20.43,22.21,24.75l1.14-1.14
		c-3.38-3.38-5.46-8.04-5.46-13.19c0-10.3,8.35-18.65,18.65-18.65s18.65,8.35,18.65,18.65c0,5.15-2.09,9.81-5.46,13.19l1.14,1.14
		c10.58-4.33,18.96-13.31,22.21-24.75C114.91,23.71,99.95,12.39,83,12.39z"/>
	<path class="st1" d="M126.61,25.19c-0.41-0.72-1.33-0.96-2.05-0.55l-6.84,3.95c0.53,0.84,1.03,1.71,1.5,2.6l6.84-3.95
		C126.78,26.83,127.03,25.91,126.61,25.19z"/>
	<path class="st1" d="M110.46,19.97l5.09-6.07c0.53-0.63,0.45-1.58-0.19-2.11c-0.64-0.53-1.58-0.45-2.11,0.18l-5.09,6.07
		C108.95,18.66,109.72,19.3,110.46,19.97z"/>
	<path class="st1" d="M98.39,12.41l2.71-7.45c0.28-0.78-0.12-1.64-0.9-1.92c-0.77-0.28-1.64,0.12-1.92,0.9l-2.71,7.45
		C96.53,11.69,97.47,12.03,98.39,12.41z"/>
	<path class="st1" d="M83,9.39c0.49,0,0.99,0.01,1.48,0.03V1.5c0-0.83-0.67-1.5-1.5-1.5c-0.83,0-1.5,0.67-1.5,1.5v7.92
		C81.98,9.4,82.49,9.39,83,9.39z"/>
	<path class="st1" d="M67.56,12.43c0.92-0.38,1.86-0.72,2.82-1.03l-2.72-7.46c-0.28-0.78-1.15-1.18-1.92-0.9
		c-0.78,0.28-1.18,1.14-0.9,1.92L67.56,12.43z"/>
	<path class="st1" d="M55.51,19.99c0.74-0.67,1.51-1.31,2.3-1.93l-5.11-6.1c-0.53-0.63-1.48-0.72-2.11-0.18
		c-0.63,0.53-0.72,1.48-0.18,2.11L55.51,19.99z"/>
	<path class="st1" d="M48.27,28.62l-6.88-3.97c-0.72-0.42-1.64-0.17-2.05,0.55c-0.41,0.72-0.17,1.63,0.55,2.05l6.88,3.97
		C47.24,30.33,47.73,29.46,48.27,28.62z"/>
	<path class="st1" d="M121.77,42.85C118.02,53.8,109.85,62.45,99.62,67L111,78.39H55L66.38,67c-10.23-4.56-18.4-13.21-22.16-24.16
		c-0.47,2.44-0.73,4.96-0.73,7.54v39.5l8.5-8.5h62l8.5,8.5v-39.5C122.5,47.81,122.24,45.29,121.77,42.85z"/>
	<path class="st1" d="M88.88,56.27c1.51-1.51,2.44-3.59,2.44-5.88c0-3.36-2-6.25-4.87-7.56c-0.22,1.72-1.67,3.06-3.45,3.06
		s-3.24-1.34-3.45-3.06c-2.87,1.31-4.87,4.2-4.87,7.56c0,2.3,0.93,4.38,2.44,5.88L66.36,67.03L83,76.65l16.64-9.62L88.88,56.27z"/>
	<g>
		<path class="st1" d="M127.5,96.39H38.45c-0.83,0-1.5-0.67-1.5-1.5s0.67-1.5,1.5-1.5h89.05c0.83,0,1.5,0.67,1.5,1.5
			S128.33,96.39,127.5,96.39z"/>
		<path class="st1" d="M144.5,113.39H21.56c-0.83,0-1.5-0.67-1.5-1.5s0.67-1.5,1.5-1.5H144.5c0.83,0,1.5,0.67,1.5,1.5
			S145.33,113.39,144.5,113.39z"/>
		<path class="st1" d="M164.5,133.39H1.5c-0.83,0-1.5-0.67-1.5-1.5s0.67-1.5,1.5-1.5h163c0.83,0,1.5,0.67,1.5,1.5
			S165.33,133.39,164.5,133.39z"/>
	</g>
</g>
</svg>
